# xmcd
#
# Track frame offsets:
#	150
#	14412
#	25750
#	38437
#	48400
#	58237
#	74137
#	89650
#	103662
#	112700
#	125087
#	139387
#	153825
#	168562
#	182750
#	200137
#
# Disc length: 2837 seconds
#
# Revision: 1
# Processed by: cddbd v1.5PL3 Copyright (c) Steve Scherf et al.
# Submitted via: audiograbber 1.83.01
#
DISCID=e80b1310
DTITLE=Verschiedene - So Schön Ist Unser Deutschland 2
DYEAR=1996
DGENRE=
TTITLE0=Geh Aus, Mein Herz, Und Suche Freud
TTITLE1=Gold Und Silber Lieb Ich Sehr
TTITLE2=Auf Der Schwäb´schen Eisenbahne
TTITLE3=Die Fischerin Vom Bodensee
TTITLE4=Tanz´n Tat I Gern
TTITLE5=Der Königsjodler
TTITLE6=Oh Schwarzwald, Oh Heimat 
TTITLE7=Du, Du Liegst Mir Im Herzen
TTITLE8=Bayerischer Defiliermarsch
TTITLE9=Die Post Im Walde
TTITLE10=Auf Dem Berg So Hoch Da Droben
TTITLE11=Im Wald Im Grünen Walde
TTITLE12=Bald Verblühen Die Letzten Rosen
TTITLE13=Oh, Du Mein Edelweiß
TTITLE14=Tanz In Der Valepp
TTITLE15=Wir Sind Durch Deutschland Gefahren
EXTD=
EXTT0=
EXTT1=
EXTT2=
EXTT3=
EXTT4=
EXTT5=
EXTT6=
EXTT7=
EXTT8=
EXTT9=
EXTT10=
EXTT11=
EXTT12=
EXTT13=
EXTT14=
EXTT15=
PLAYORDER=
